<svg xmlns='http://www.w3.org/2000/svg' viewBox="0 0 134 45">
	<path style='fill: rgb(255,193,7);' d="M37.3,7.4c3.2,0.5,7.3,1.5,11.6,3.4c2.1,0.9,4.2,2,6.4,3.1c2.1,1.1,4.3,2,6.7,2.9c4.8,1.7,10.1,2.8,15.5,3.5
		C83,20.8,88.6,21,94,20.8c10.8-0.3,20.9-1.6,28.2-2.9c3.6-0.7,6.6-1.3,8.7-1.8c2-0.5,3.2-0.7,3.2-0.7s-1.2,0.4-3.3,1.1
		c-2.1,0.7-5.2,1.6-8.9,2.5c-7.4,1.9-17.4,3.9-27.6,4.8c-5.1,0.5-10.2,0.7-15.1,0.5c-4.8-0.2-9.4-0.7-13.2-1.5
		c-3.9-0.8-7-1.8-9.2-2.6c-2.2-0.8-3.3-1.3-3.3-1.3s-1.2-0.5-3.2-1.4c-1-0.4-2.2-1-3.5-1.5c-1.3-0.5-2.8-1-4.6-1.5
		c-3.4-0.9-7.6-1.7-12-1.9c-2.2-0.1-4.5-0.1-6.7,0.1c-2.1,0.2-4.2,0.8-6.2,1.7c-4,1.8-7.3,4.9-9.4,8.5c-0.2,0.4-0.5,0.9-0.7,1.3
		l-0.3,0.6l-0.2,0.7c-0.3,0.9-0.6,1.9-0.8,2.8c-0.4,1.9-0.7,3.8-0.8,5.6c-0.2,3.5,0,6.4,0.4,8.3c0.1,0.5,0.2,0.9,0.3,1.2
		c0.1,0.4,0.2,0.6,0.3,0.9C6,44.8,6.1,45,6.1,45s-0.2-0.4-0.7-1.2C5.1,43,4.5,41.7,4.1,40c-0.4-1.7-0.8-3.9-1-6.4
		C3,31.1,3,28.2,3.5,25.2c1.2-6,5.7-12.5,12.6-15.8c1.7-0.8,3.5-1.5,5.4-1.9c1.9-0.4,3.7-0.6,5.5-0.7C30.6,6.6,34,6.9,37.3,7.4z"/>
	<path style='fill: rgb(3,169,244);'  d="M32.3,0c4.3,0.1,10,1,16,3.3c3,1.2,6,2.8,8.9,4.4c2.9,1.6,5.9,3.2,9.2,4.4c7.1,2.8,15.2,3.9,23,4.5
			c7.8,0.5,15.4,0.5,22,0.2c3.3-0.2,6.4-0.4,9.1-0.7c2.7-0.3,5.1-0.6,7.1-0.9c2-0.2,3.6-0.4,4.6-0.6c1.1-0.2,1.6-0.2,1.6-0.2
			c-2.7,0.7-5.6,1.2-8.4,1.8c-2.8,0.6-5.7,1.1-8.5,1.5c-5.7,0.8-11.4,1.4-17.2,1.8c-5.7,0.3-11.5,0.4-17.3,0.1
			c-5.8-0.4-11.7-1.2-17.4-3c-2.6-0.8-5.3-1.9-7.7-3.1c-1.2-0.6-2.5-1.2-3.7-1.8c-1.2-0.6-2.3-1.1-3.5-1.7c0,0-1.1-0.5-3.1-1.3
			c-2-0.7-5-1.6-8.6-2.2C31,5.4,20.5,5.4,12.3,10.4c-0.5,0.3-1,0.6-1.5,1c-0.4,0.3-0.8,0.6-1.2,1c-0.8,0.7-1.5,1.6-2.2,2.5
			c-1.3,1.8-2.4,3.9-3.3,6c-0.8,1.9-1.2,4-1.5,6c-0.3,2-0.3,4.1-0.3,5.9c0.1,3.7,0.6,6.7,1.2,8.7c0.3,1,0.5,1.7,0.7,2.2
			c0.2,0.5,0.3,0.7,0.3,0.7S4.3,44,3.8,43.2c-0.5-0.8-1.1-2.2-1.7-3.9c-0.6-1.8-1.2-4-1.6-6.6C0.1,30-0.2,27,0.1,23.8
			c0.1-1.6,0.5-3.3,1-4.9c0.5-1.6,1.2-3.3,2-4.9c0.8-1.6,1.8-3.2,3.1-4.7c0.6-0.7,1.4-1.5,2.2-2.1c0.7-0.6,1.5-1.2,2.3-1.7
			C14,3.4,17.7,1.9,21.4,1C25.1,0.2,28.8-0.1,32.3,0z"/>
</svg>