<!-- Generator: Adobe Illustrator 19.1.0, SVG Export Plug-In  -->
<svg version="1.1"
	 xmlns="http://www.w3.org/2000/svg" xmlns:xlink="http://www.w3.org/1999/xlink" xmlns:a="http://ns.adobe.com/AdobeSVGViewerExtensions/3.0/"
	 x="0px" y="0px" width="20px" height="20px" viewBox="0 0 20 20" style="enable-background:new 0 0 20 20;" xml:space="preserve">
<style type="text/css">
	.st0{fill:#FFFFFF;}
	.st1{fill:#AAAAAA;}
</style>
<defs>
</defs>
<rect class="st0" width="20" height="20"/>
<path id="path8522-6-8-58_1_" class="st1" d="M7.5,4v1H6C5.5,5,5,5.5,5,6v9h1v1h2v-1h4v1h2v-1h1V6c0-0.5-0.5-1-1-1h-1.5V4H7.5z M7,6
	h6v3H7V6z M7.7,11.5c0.4,0,0.8,0.3,0.8,0.8s-0.3,0.8-0.8,0.8s-0.8-0.3-0.8-0.8S7.3,11.5,7.7,11.5z M12.2,11.5c0.4,0,0.8,0.3,0.8,0.8
	s-0.3,0.8-0.8,0.8s-0.8-0.3-0.8-0.8S11.8,11.5,12.2,11.5z"/>
</svg>
