<?xml version="1.0" encoding="UTF-8"?>
<svg xmlns="http://www.w3.org/2000/svg" width="16px" height="16px">
	<g>
	<path class="logo_foot" d="M9.778,2.995c0,0.639-0.517,1.156-1.156,1.156c-0.639,0-1.156-0.517-1.156-1.156c0-0.639,0.517-1.155,1.156-1.155
		C9.261,1.839,9.778,2.356,9.778,2.995L9.778,2.995z"/>
	<path class="logo_foot" d="M11.319,7.929c-0.226-0.102-1.715-0.842-1.715-0.842S9.076,5.961,8.803,5.345c-0.257-0.58-0.442-0.731-0.808-0.731H7.431
		c-0.296,0-0.404,0.108-0.585,0.21L5.32,6.121C5.187,6.198,5.101,6.313,5.05,6.475L4.722,8.671C4.675,9.021,4.86,9.17,5.07,9.213
		c0.169,0.036,0.424-0.05,0.476-0.296c0.041-0.203,0.35-2,0.35-2l0.995-0.765C6.727,6.915,6.559,7.75,6.505,8.035
		C6.41,8.52,6.652,8.888,6.844,9.177c0.174,0.262,2.426,3.812,2.722,4.198c0.298,0.386,0.569,0.578,0.982,0.348
		c0.347-0.194,0.289-0.636,0.097-0.964C10.453,12.431,8.18,8.734,8.18,8.734l0.381-1.648c0,0,0.264,0.377,0.399,0.589
		c0.065,0.099,0.133,0.14,0.311,0.237c0.21,0.115,1.228,0.578,1.537,0.718c0.275,0.122,0.616,0.169,0.752-0.075
		C11.699,8.315,11.525,8.024,11.319,7.929L11.319,7.929z"/>
	<path class="logo_foot" d="M6.291,9.423l-0.46,1.623c0,0-0.961,1.39-1.228,1.779c-0.201,0.293-0.352,0.65-0.009,0.91
		c0.386,0.291,0.695-0.088,0.894-0.314c0.183-0.205,0.928-1.246,1.137-1.51c0.14-0.178,0.217-0.327,0.278-0.476
		c0.038-0.099,0.19-0.51,0.287-0.776L6.291,9.423z"/>
	</g>
</svg>