<?xml-stylesheet type="text/css" href="../../css/svg.css" ?>
<svg xmlns='http://www.w3.org/2000/svg' width='32' height='32'>
	<path d="M9.7,11.1h6.1c0,0,0,0.9,0,1.2c0,2.7-1.7,5.5-5.2,5.9c-3.2,0.4-6.2-1.6-7-4.8C2.7,9.8,5.2,6.3,8.9,5.8
		c1.8-0.3,3.4,0.2,4.8,1.4c0,0,0.1,0.1,0.1,0.1c0,0,0.1,0.1,0.1,0.1S12.8,8.5,12.3,9c-1.8-1.5-3.9-1-5,0c-1.3,1.1-1.7,3.1-1,4.6
		c0.8,1.6,2.5,2.5,4.2,2.2c1.5-0.3,2.6-1.3,2.7-2.6H9.7V11.1z"/>
	<polygon points="23,11.1 21.2,11.1 21.2,9.3 19.5,9.3 19.5,11.1 17.7,11.1 17.7,12.7 19.5,12.7 19.5,14.6 21.2,14.6 
		21.2,12.7 23,12.7 	"/>
</svg>