<?xml-stylesheet type="text/css" href="../../css/svg.css" ?>
<svg xmlns='http://www.w3.org/2000/svg' width='32' height='32'>
<g>
	<path d="M18.667,8.354L14.339,6.19c-0.02-0.01-0.041-0.014-0.062-0.015c-0.001,0-0.003,0-0.004,0c-0.053,0-0.105,0.026-0.133,0.072
		l-2.668,4.335l2.978,4.839L18.708,8.5C18.74,8.448,18.721,8.381,18.667,8.354z"/>
	<polygon points="10.061,9.058 10.061,13.729 14.213,15.805 	"/>
	<path d="M14.575,15.984l3.813,1.906c0.208,0.104,0.378-0.001,0.378-0.234V9.173L14.575,15.984z"/>
	<path d="M9.602,8.376L5.608,6.379L5.356,6.253C5.32,6.235,5.285,6.226,5.254,6.226c-0.045,0-0.082,0.018-0.109,0.05
		C5.119,6.307,5.104,6.352,5.104,6.409v9.114c0,0.155,0.114,0.339,0.252,0.408l3.924,1.962c0.055,0.027,0.106,0.04,0.153,0.04
		c0.132,0,0.225-0.102,0.225-0.274V8.467C9.658,8.429,9.636,8.393,9.602,8.376z"/>
</g>
</svg>

