<?xml-stylesheet type="text/css" href="../../css/svg.css" ?>
<svg xmlns='http://www.w3.org/2000/svg' width='32' height='32'>
	<path d="M19.3,7.5c-0.5,0.2-1.1,0.4-1.7,0.5c0.6-0.4,1.1-1,1.3-1.6C18.3,6.7,17.7,6.9,17,7c-0.5-0.6-1.3-0.9-2.2-0.9
		c-1.6,0-3,1.3-3,3c0,0.2,0,0.5,0.1,0.7C9.4,9.6,7.2,8.4,5.7,6.6c-0.3,0.4-0.4,1-0.4,1.5c0,1,0.5,1.9,1.3,2.5
		c-0.5,0-0.9-0.1-1.4-0.4c0,0,0,0,0,0c0,1.4,1,2.6,2.4,2.9c-0.3,0.1-0.5,0.1-0.8,0.1c-0.2,0-0.4,0-0.6-0.1c0.4,1.2,1.5,2,2.8,2.1
		c-1,0.8-2.3,1.3-3.7,1.3c-0.2,0-0.5,0-0.7,0c1.3,0.8,2.9,1.3,4.6,1.3c5.5,0,8.5-4.5,8.5-8.5c0-0.1,0-0.3,0-0.4
		C18.4,8.6,18.9,8.1,19.3,7.5z"/>
</svg>