<?xml-stylesheet type="text/css" href="../../css/svg.css" ?>
<svg xmlns='http://www.w3.org/2000/svg' width='32' height='32'>
	<path d="M11.8,17h1c0,0,0.3,0,0.5-0.2c0.1-0.2,0.1-0.5,0.1-0.5s0-1.4,0.6-1.6c0.6-0.2,1.5,1.4,2.3,2
	c0.7,0.5,1.2,0.4,1.2,0.4l2.3,0c0,0,1.2-0.1,0.6-1c0-0.1-0.3-0.7-1.7-2c-1.5-1.4-1.3-1.1,0.5-3.5c1.1-1.4,1.5-2.3,1.4-2.7
	c-0.1-0.4-0.9-0.3-0.9-0.3l-2.6,0c0,0-0.2,0-0.3,0.1c-0.1,0.1-0.2,0.3-0.2,0.3s-0.4,1.1-1,2.1c-1.2,2-1.6,2.1-1.8,2
	c-0.4-0.3-0.3-1.2-0.3-1.8c0-1.9,0.3-2.7-0.6-2.9C12.6,7.1,12.4,7,11.7,7c-0.9,0-1.7,0-2.2,0.2C9.2,7.4,8.9,7.7,9.1,7.7
	c0.2,0,0.6,0.1,0.8,0.4c0.3,0.4,0.3,1.2,0.3,1.2s0.2,2.3-0.4,2.6c-0.4,0.2-0.8-0.2-1.9-2C7.3,8.9,6.9,7.9,6.9,7.9S6.9,7.7,6.7,7.6
	C6.5,7.5,6.3,7.4,6.3,7.4l-2.5,0c0,0-0.4,0-0.5,0.2c-0.1,0.1,0,0.4,0,0.4s2,4.6,4.2,6.9C9.5,17.1,11.8,17,11.8,17"/>
</svg>